# xmcd
#
# Track frame offsets: 
#        150
#        13459
#        28157
#        40836
#        57350
#        72379
#        85711
#        99888
#        116390
#        128627
#        151089
#
# Disc length: 3952 seconds
#
# Revision: 0
# Processed by: cddbd v1.5.1PL0 Copyright (c) Steve Scherf et al.
# Submitted via: ExactAudioCopy v0.95a5
#
DISCID=850f6e0b
DTITLE=Hawg Wylde - Upanatum
DYEAR=2000
DGENRE=Country
TTITLE0=I Love a Rainy Night
TTITLE1=Take My Hand
TTITLE2=Misery
TTITLE3=Wait
TTITLE4=Again and Again
TTITLE5=Once in a Lifetime
TTITLE6=What I Need
TTITLE7=Everywhere You Go
TTITLE8=Made For You
TTITLE9=Anybody Seen Her
TTITLE10=extras
EXTD=
EXTT0=
EXTT1=
EXTT2=
EXTT3=
EXTT4=
EXTT5=
EXTT6=
EXTT7=
EXTT8=
EXTT9=
EXTT10=
PLAYORDER=
